<svg width="24" height="24" viewBox="0 0 24 24" fill="none" xmlns="http://www.w3.org/2000/svg">
<path d="M0 12C0 5.37261 5.37258 1.52588e-05 12 1.52588e-05C18.6274 1.52588e-05 24 5.37261 24 12C24 18.6275 18.6274 24 12 24C5.37258 24 0 18.6275 0 12Z" fill="#EBF3FD"/>
<path fill-rule="evenodd" clip-rule="evenodd" d="M18.9775 6.68025C18.9775 6.47156 18.8281 6.30081 18.6455 6.30081H5.33201C5.1494 6.30081 5 6.47156 5 6.68025V8.11452H5.00397C5.03426 9.15445 7.52215 11.9344 9.04951 13.641C9.72784 14.3989 10.2167 14.9452 10.2167 15.0333C10.2167 15.0906 10.2126 15.2607 10.2068 15.4988C10.1836 16.4519 10.1339 18.4958 10.2167 18.7653C10.3203 19.1021 13.6562 21.0927 13.7569 20.9167C13.8014 20.8389 13.7756 19.751 13.7467 18.53C13.7102 16.9897 13.6687 15.2375 13.7569 15.0333C13.804 14.9242 14.2872 14.3532 14.9422 13.5792C16.4839 11.7574 18.9774 8.81082 18.9774 8.11455C18.9775 8.11454 18.9775 8.11453 18.9775 8.11452C19.0282 8.04309 18.9775 6.68025 18.9775 6.68025Z" fill="#1F7AE0"/>
</svg>
