<svg xmlns="http://www.w3.org/2000/svg" id="Layer_1" data-name="Layer 1" viewBox="0 0 800 400"><defs><style>.cls-2{opacity:.02;fill:#111}.cls-3{fill:#f2f2f2}.cls-4,.cls-7{fill:#d9dadb}.cls-5{opacity:.1}.cls-6{fill:none;stroke:#425760;stroke-width:1.68px;stroke-miterlimit:10}.cls-20,.cls-7{fill-rule:evenodd}.cls-12{fill:#fed2be}.cls-13{fill:#333d8c}.cls-16{fill:#e5b53c}.cls-20,.cls-22{fill:#eaeaea}</style></defs><path d="m263.7 297.59 144.53 76.12 160.11-81.04-15.42-20.52-165.72-22.93-129.17 39.3z" style="fill:#06152b;opacity:.02"/><ellipse cx="734" cy="278.73" class="cls-2" rx="19.37" ry="6.09"/><path d="m738.18 281.96-.54-21.56-1.08 1.89.27 19.94z" class="cls-3"/><path d="M734.74 278.74V264s-.51-45.36-6.63-43.83 4.59 45.36 4.59 45.36l1.53 14.27Z" class="cls-4"/><path d="M737.37 266.06s-9.43-22.1-4.58-31.53 5.12 28.57 5.12 28.57" class="cls-3"/><path d="M727.54 279.29s3.86-40-9.9-45.36-16.82 3-9.18 7.64 20.61 11.73 19.08 37.72" class="cls-4"/><path d="M740.57 282.08s-3.06-41.27 6.88-39 6.12 8.41 1.53 13-9.17 16.83-8.41 26" class="cls-3"/><ellipse cx="82.3" cy="248.96" class="cls-2" rx="19.37" ry="6.09"/><path d="m78.13 252.19.54-21.56 1.07 1.88-.27 19.95z" class="cls-3"/><path d="M81.57 249v-14.82s.51-45.35 6.62-43.82-4.59 45.35-4.59 45.35L82.08 250Z" class="cls-4"/><path d="M78.94 236.29s9.43-22.1 4.58-31.53-5.12 28.56-5.12 28.56" class="cls-3"/><path d="M88.76 249.52s-3.85-40 9.91-45.37 16.82 3.06 9.17 7.65-20.6 11.73-19.08 37.72" class="cls-4"/><path d="M75.73 252.31s3.06-41.28-6.87-39-6.12 8.41-1.53 13 9.17 16.83 8.4 26" class="cls-3"/><path d="M129.34 123.33s-34.27 27.27 1.5 26.33 102.08 10.71 88.5-13.19-86.64-21.47-90-13.14" class="cls-2"/><path d="M154.75 144.41s-37.31-32.58-20.59-38.48.64-32.25 10.94-41.93 5.14-47 19.9-41.81 48.89 35.38 29.59 54.67 10.94 42.41 10.94 42.41 7.11 23.86-50.78 25.14" class="cls-3"/><g class="cls-5"><path d="M172.11 135.66s-8.56-80.41.1-88.81" class="cls-6"/><path d="M169 71.29s13.16-1.64 13.75-7.71M169.16 99s-19.69 9.63-19.6-1.08M170.28 115.42s2.46 6.89 10.48.58" class="cls-6"/></g><path d="M129.45 332.85s-28.21 24 5.94 23.12 92.93 12.24 80-10.58-82.74-20.54-85.94-12.54" class="cls-2"/><path d="M186.86 342.54c-16 7.78-35.47 4.21-46.86-9.44-5.83-7-8.53-15.59-1.53-25 17.71-23.67-6.15-50.47 11.2-64.68s66.66 14.39 48.91 37.07c-15.66 20.05 30.07 41.71-11.72 62.05" class="cls-3"/><g class="cls-5"><path d="M171.29 339.86s-7.82-73.49.1-81.17" class="cls-6"/><path d="M168.42 281s12-1.5 12.57-7M168.6 306.31s-18 8.8-17.91-1M169.63 321.37s2.24 6.29 9.57.52" class="cls-6"/></g><path d="M624.63 116.61s-28.2 24 5.94 23.12 92.93 12.24 80-10.58-82.73-20.54-85.94-12.54" class="cls-2"/><path d="M682 126.3c-16 7.78-35.47 4.21-46.86-9.44-5.83-7-8.53-15.59-1.52-25 17.7-23.67-6.15-50.47 11.2-64.68s66.65 14.39 48.9 37.07C678.11 84.3 723.83 106 682 126.3" class="cls-3"/><g class="cls-5"><path d="M666.48 123.62s-7.83-73.49.09-81.17" class="cls-6"/><path d="M663.61 64.79s12-1.5 12.57-7.05M663.78 90.07s-18 8.8-17.91-1M664.81 105.13s2.25 6.29 9.57.52" class="cls-6"/></g><path d="m413.58 68.08-139.33 69.67v153.27l139.33-69.67z" class="cls-7"/><path d="M346.25 201.18c.24 3.32-2.2 28-3.62 45.51" style="fill:#4e7ddb"/><path d="M413.58 82.01v139.34l139.34 69.67V137.75L413.58 68.08" style="fill-rule:evenodd;fill:#e0e0e0"/><path d="M419.05 184.44c.42 25.76-3.61 53-4.08 56.1s-5.12 59-5.12 59-4.84 10.91-20 2.73c0 0 1.57-51.23 1.86-59.92s1.68-26.71 1.1-35.72-5.66-11.38-6.2-23.23c0 0 2-10.9 16.24-9.95s16.2 10.99 16.2 10.99" style="fill:#cae0f9"/><path d="M391.74 188.08c.42 25.76-3.61 53-4.08 56.1s-5.12 59-5.12 59-4.84 10.9-20 2.73c0 0 1.57-51.23 1.86-59.93s1.68-26.71 1.1-35.71-5.66-11.38-6.2-23.23c0 0 2-10.9 16.24-10s16.2 11.04 16.2 11.04" style="fill:#bdd7ef"/><path d="m422.12 118.9 10.41 37.77a11.4 11.4 0 0 1 .1 4.77c-.52 2.59.16 8.64 1.55 9.37s1.23-5 2.36-5 4 5.55 4.45 6.84-3.31 2.42-2.18 3.19 5.15 1.37 6.94-3.44 2.3-7.41 1.77-10.24-5.85-10.48-5.85-10.48S437.6 118 435 115.39" class="cls-12"/><path d="M430.55 72.87c3 11.88 4.43 43.38 4.43 43.38a35.3 35.3 0 0 1-10.19 5.11c-5.24 1.43-7.49.81-7.49.81s-3.74-30-2.31-40 13.41-17.84 15.56-9.3" class="cls-13"/><path d="M428.15 120.94c1.68-15.73 5-36 3.49-42.52a16.06 16.06 0 0 0-5.32-8.88c-3.06-2.43-7.18-1.43-10.78-1.2a44.3 44.3 0 0 0-9.92 2c-4.1 1.25-8.6 1.77-12.59 3.32-3.57 1.38-7.09 2.9-10.59 4.45-11.61 5.1-12.35 11.19-11.44 26.54s-11.74 91.13-11.74 91.13a56.7 56.7 0 0 0 17.39-4.33 88 88 0 0 1 33-6.72c3.85 0 7.37-.68 9.34-2.53.01 0 7.48-45.52 9.16-61.26M412 128.33v.19c.29-2.7.54-5.29.74-7.73-.26 2.69-.49 5.21-.74 7.54" style="fill:#2d3486"/><path d="M403.54 62.94c-.7 2.82-6.34 7.5-7.17 10s1.09 12.06 7.71 13.87 9-1.74 12.2-6.9-12.74-16.97-12.74-16.97" class="cls-12"/><path d="m435.83 61.34-.15.65a12 12 0 0 1-2.33 4.65c-1.13 1.37-2.69 2.27-3.93 3.54-.83.84-1 2.3-2.77 4.17s-12.26 8.59-18 4.09a15.52 15.52 0 0 1-6.09-12.5c-.14-2.64 1-10.4 1-10.4s2.23-8 4.52-11.58a18.3 18.3 0 0 1 7.21-6 8.2 8.2 0 0 1 3.88-1.08c1.81.13 3.15 1.54 4.75 2.22 1.2.51 2.52-.07 3.8.51 1.61.72 3.28 3 4.23 4.4 3.32 4.99 5.17 11.4 3.88 17.33" class="cls-12"/><path d="M399.5 127.12c2.16 6.45-14.5 12.62-18.55 10 0 0-8.19-27.84-10.39-35.65s1.26-15.18 7-15.3 10.56 4.72 13.44 13.27 8.5 27.68 8.5 27.68" class="cls-13"/><path d="m398.12 131.73 2.8 4a2.17 2.17 0 0 0 3.77-.38l9.56-22.07 9.84 2.25-15.88 33.11s-12.93 9.16-22.95-10.95" class="cls-12"/><path d="M436.1 39.91a22.5 22.5 0 0 0-7.64-5.46c-1.14-.47-2.66-1.1-3.91-.83-.54.12-2.31 1.47-2.61 1.36l-3.62-1.31c-3.61-1.31-10.76 5.54-12.62 10S403 57.53 403 57.53s0 1.47.12 3.47c.38-4.33 3.4-10.06 5.86-7.11s.21 6.16.21 6.16l1.33.93s2.9-3.83 3.53-5c1-1.93 4.27-1.49 5.43-3.47.4-.68.46-1.57.79-2.29 1.09-2.43 2.23 0 3.38 1a26 26 0 0 0 5 3.63c2 1.14 5.16 2.51 7.48 2.63 1.9.1 4.38.2 6.12-.55a7.7 7.7 0 0 0 2.23-1.54" style="fill:#0f1e51"/><path d="M419.86 120.65s15.68-17.37 7.77-19.52c-2.3-.62.37 3.58-4.27.76 0 0 .6 2.88-3.93 2.86 0 0 3.23-5.29-5.4 2.09 0 0-1 2 .31 6.42 0 0-5.34 11.07 5.52 7.39" class="cls-12"/><path d="m412.48 108.32 19-4.47.21-3-19.39 4.74-1 2.37c-.14.36.45.53 1.18.36" class="cls-16"/><ellipse cx="443.78" cy="99.06" rx="12.52" ry="4.06" style="stroke-miterlimit:10;fill:#fff;stroke:#e5b53c;stroke-width:2.55px" transform="rotate(-15.3 443.883 99.072)"/><path d="m410.65 107.74.88.59 1.18-1.01z" class="cls-16"/><ellipse cx="443.56" cy="98.88" rx="12.51" ry="4.04" style="fill:none;stroke-miterlimit:10;stroke:#f3c541;stroke-width:2.54px" transform="rotate(-15.33 443.687 98.9)"/><path d="m412.05 107.81 18.58-4.37.22-3-18.19 4.45a2.22 2.22 0 0 0-1.45.86l-.69 1.6c-.19.46.59.65 1.53.46" style="fill:#f3c541"/><path d="M427.67 108.76s-5.66-6.46-3.85-7.82 5.9 2.75 5.9 2.75" class="cls-12"/><path d="m552.92 137.75-139.34 69.66v153.28l139.34-69.67z" class="cls-20"/><path d="M274.25 151.68v139.34l139.33 69.67V207.41l-139.33-69.66" style="fill:#f2f2f2;fill-rule:evenodd"/><path d="m413.58 207.41 36.99 49.23 138.39-69.2-36.04-49.97z" class="cls-7"/><path d="m413.58 207.41-55.73 27.87-139.34-69.67 55.74-27.86z" class="cls-20"/><ellipse cx="534.33" cy="87.07" class="cls-3" rx="2.66" ry="1.26" transform="rotate(-37.38 534.357 87.074)"/><path d="M536 85.55s-4.84 3.82-5.2.07 5.2-.07 5.2-.07M537 85.92s-5.52 2.75-2.29 4.67 2.29-4.67 2.29-4.67" class="cls-22"/><circle cx="536.75" cy="85.07" r=".97" class="cls-3"/><path d="M532.11 88.43s-.58.73-.34.7a7 7 0 0 0 .79-.21Z" class="cls-3"/><path d="M530.81 90.35c-24.54 16.86-3.72 38.51-3.72 38.51s12.78 21.43-26.68 20" style="opacity:.1;fill:none;stroke-miterlimit:10;stroke:#2d3386;stroke-dasharray:4"/></svg>